<?xml version="1.0" standalone="no"?>
<!DOCTYPE svg PUBLIC "-//W3C//DTD SVG 20010904//EN"
 "http://www.w3.org/TR/2001/REC-SVG-20010904/DTD/svg10.dtd">
<svg version="1.0" xmlns="http://www.w3.org/2000/svg"
 width="600.000000pt" height="494.000000pt" viewBox="0 0 600.000000 494.000000"
 preserveAspectRatio="xMidYMid meet">

<g transform="translate(0.000000,494.000000) scale(0.100000,-0.100000)"
fill="#000000" stroke="none">
<path d="M2370 4394 c-1074 -676 -1516 -959 -1922 -1230 l-318 -211 141 -63
c77 -35 136 -66 132 -70 -4 -4 -64 -45 -133 -90 l-125 -84 85 -38 c47 -21 107
-48 134 -61 l49 -23 -128 -83 -128 -83 124 -55 c68 -30 128 -58 132 -62 4 -4
-46 -43 -112 -87 -67 -43 -121 -81 -121 -84 0 -3 30 -19 68 -35 37 -16 96 -42
131 -58 l64 -28 -119 -80 c-65 -43 -120 -83 -122 -87 -1 -4 52 -32 118 -61 66
-29 120 -56 120 -60 0 -3 -53 -41 -117 -83 l-116 -76 34 -15 c19 -8 630 -281
1358 -605 l1324 -590 81 61 c190 144 2674 2043 2703 2066 18 14 33 28 33 31 0
3 -52 27 -115 54 -63 26 -115 51 -115 55 1 3 48 42 106 85 57 44 101 83 97 87
-4 4 -59 28 -120 54 -62 26 -110 51 -108 55 3 4 51 43 107 85 57 43 107 81
111 85 5 4 -47 31 -115 60 -68 29 -124 53 -125 54 -2 1 49 42 113 90 64 49
112 91 107 95 -4 4 -59 29 -120 56 -62 26 -113 49 -113 51 0 2 46 38 102 81
56 43 108 83 116 88 10 8 -20 24 -117 65 -72 30 -131 57 -130 60 0 3 54 46
119 95 66 50 120 92 120 95 -1 5 -2394 1034 -2413 1037 -7 1 -401 -243 -877
-543z m2050 -19 c613 -262 1119 -480 1123 -485 10 -9 -2693 -2075 -2713 -2074
-8 1 -573 250 -1255 554 -682 304 -1260 561 -1284 572 l-44 18 264 178 c346
232 813 531 1869 1195 846 532 866 544 895 532 17 -7 532 -227 1145 -490z
m1053 -751 c48 -20 87 -40 87 -44 0 -10 -2691 -2065 -2709 -2068 -14 -2 -2563
1127 -2578 1142 -8 8 -15 2 101 79 l98 65 42 -18 c22 -9 553 -245 1179 -524
626 -278 1143 -506 1150 -506 7 1 577 433 1267 960 690 528 1260 958 1265 956
6 -2 49 -21 98 -42z m19 -291 c49 -21 88 -40 87 -43 0 -3 -608 -468 -1350
-1035 -906 -691 -1357 -1030 -1372 -1029 -17 1 -2562 1126 -2575 1139 -2 2 40
33 94 69 94 63 98 64 128 52 17 -7 554 -246 1193 -530 l1162 -518 1263 966
c695 531 1267 966 1273 966 5 0 49 -17 97 -37z m14 -289 c47 -20 83 -40 82
-45 -7 -19 -2704 -2070 -2718 -2066 -31 8 -2570 1141 -2570 1146 0 3 43 34 95
69 l95 62 1191 -530 1192 -530 171 130 c94 71 661 505 1261 964 600 459 1096
835 1103 835 8 1 52 -15 98 -35z m17 -290 c84 -36 87 -38 70 -55 -10 -9 -620
-477 -1356 -1039 -1177 -898 -1341 -1020 -1361 -1013 -49 17 -2565 1138 -2566
1143 0 4 151 105 187 124 6 3 532 -226 1170 -510 637 -283 1173 -522 1190
-529 l33 -14 1262 965 c694 530 1267 964 1273 964 5 0 50 -16 98 -36z m20
-277 c43 -19 79 -36 82 -39 5 -4 -2659 -2046 -2701 -2071 -7 -4 -572 242
-1255 547 -684 304 -1266 563 -1294 575 l-49 22 89 60 c57 37 97 58 110 56 11
-3 542 -237 1180 -522 638 -284 1169 -520 1180 -525 17 -6 240 160 1285 960
696 533 1272 969 1281 969 9 1 50 -14 92 -32z"/>
<path d="M3060 4318 c0 -12 459 -204 477 -200 33 7 -22 36 -222 118 -126 51
-236 93 -242 94 -7 0 -13 -6 -13 -12z"/>
<path d="M2945 4260 c-4 -6 -5 -13 -4 -15 5 -4 408 -165 414 -165 3 0 5 6 5
14 0 12 -100 55 -396 173 -7 2 -15 -1 -19 -7z"/>
<path d="M2844 4188 c-3 -5 -2 -13 2 -17 5 -5 123 -54 262 -111 189 -77 256
-100 264 -92 13 13 33 4 -294 138 -138 56 -230 89 -234 82z"/>
<path d="M2505 3989 c-4 -6 -5 -12 -3 -15 6 -6 1557 -674 1571 -677 7 -1 12 4
12 12 0 9 -287 138 -785 352 -431 187 -786 339 -787 339 -1 0 -5 -5 -8 -11z"/>
<path d="M4432 3908 c4 -12 278 -126 306 -127 6 -1 12 5 12 12 0 8 -60 37
-147 71 -153 58 -178 65 -171 44z"/>
<path d="M2362 3894 c5 -24 1275 -566 1282 -547 4 9 -5 19 -27 28 -17 7 -306
131 -640 274 -335 144 -611 261 -614 261 -2 0 -3 -7 -1 -16z"/>
<path d="M2205 3799 c-4 -6 -5 -11 -4 -13 9 -6 1505 -648 1514 -649 6 -1 10 4
10 12 0 9 -261 127 -750 338 -412 177 -753 323 -757 323 -4 0 -10 -5 -13 -11z"/>
<path d="M2035 3700 c-4 -6 -5 -13 -4 -14 13 -10 1207 -516 1217 -516 56 0
-64 57 -581 277 -692 295 -623 267 -632 253z"/>
<path d="M1650 3448 c0 -10 296 -137 474 -204 14 -5 17 -3 15 10 -3 13 -72 45
-234 112 -126 51 -236 93 -242 94 -7 0 -13 -6 -13 -12z"/>
<path d="M2440 3097 c0 -8 95 -52 238 -110 131 -53 241 -97 245 -97 4 0 7 6 7
14 0 8 -90 50 -237 110 -131 53 -241 96 -245 96 -5 0 -8 -6 -8 -13z"/>
<path d="M1084 3018 c-4 -6 -3 -13 2 -15 5 -2 326 -140 714 -307 469 -202 707
-300 712 -292 4 6 4 14 0 17 -8 7 -1408 609 -1416 609 -2 0 -8 -5 -12 -12z"/>
</g>
</svg>
