<?xml version="1.0" standalone="no"?>
<!DOCTYPE svg PUBLIC "-//W3C//DTD SVG 20010904//EN"
 "http://www.w3.org/TR/2001/REC-SVG-20010904/DTD/svg10.dtd">
<svg version="1.0" xmlns="http://www.w3.org/2000/svg"
 width="2053.000000pt" height="1829.000000pt" viewBox="0 0 2053.000000 1829.000000"
 preserveAspectRatio="xMidYMid meet">

<g transform="translate(0.000000,1829.000000) scale(0.100000,-0.100000)"
fill="#21769b" stroke="none">
<path d="M9975 18280 c-22 -5 -139 -14 -260 -20 -306 -16 -390 -23 -640 -56
-197 -26 -343 -49 -505 -79 -69 -13 -138 -26 -155 -29 -131 -24 -441 -97 -555
-131 -30 -9 -71 -20 -90 -25 -132 -32 -518 -155 -685 -218 -44 -17 -118 -44
-165 -62 -47 -17 -98 -38 -115 -45 -16 -7 -49 -20 -72 -29 -23 -8 -64 -25 -90
-37 -26 -11 -57 -25 -68 -30 -11 -4 -69 -31 -129 -59 -59 -27 -110 -50 -113
-50 -6 0 -274 -134 -398 -199 -186 -97 -297 -159 -456 -256 -9 -5 -39 -23 -65
-39 -727 -441 -1434 -1029 -2049 -1706 -226 -248 -461 -546 -685 -865 -121
-172 -330 -489 -330 -501 0 -2 -22 -39 -48 -82 -27 -42 -65 -106 -84 -142 -20
-36 -48 -87 -64 -115 -121 -218 -271 -521 -369 -750 -7 -16 -22 -50 -33 -75
-11 -25 -38 -92 -62 -150 -23 -58 -45 -114 -50 -125 -28 -67 -138 -376 -147
-410 -2 -11 -8 -29 -13 -40 -4 -11 -20 -60 -35 -110 -15 -49 -31 -101 -35
-115 -4 -14 -16 -52 -25 -85 -9 -33 -20 -71 -25 -85 -18 -59 -88 -334 -101
-400 -4 -25 -15 -76 -24 -115 -14 -64 -29 -139 -55 -270 -5 -27 -12 -68 -15
-90 -4 -22 -13 -80 -21 -130 -23 -136 -43 -299 -63 -510 -6 -60 -15 -148 -20
-195 -34 -299 -34 -1111 0 -1410 5 -47 14 -134 20 -195 20 -215 40 -372 64
-515 9 -52 20 -122 25 -155 11 -68 21 -116 45 -230 9 -44 21 -98 25 -120 26
-134 91 -396 124 -505 7 -25 19 -65 26 -90 21 -76 29 -102 61 -200 17 -52 35
-108 39 -125 10 -38 98 -286 135 -380 51 -131 107 -270 126 -312 44 -100 62
-140 76 -173 68 -157 220 -459 336 -670 17 -30 41 -75 55 -100 140 -254 415
-672 631 -959 47 -62 95 -125 106 -140 44 -59 141 -177 276 -336 258 -303 575
-624 893 -906 21 -19 44 -39 50 -44 23 -21 263 -221 300 -250 21 -17 66 -52
100 -78 73 -58 254 -193 322 -241 239 -169 677 -444 874 -548 47 -25 103 -56
125 -68 49 -29 431 -220 438 -220 2 0 53 -22 111 -50 58 -27 108 -50 111 -50
2 0 28 -11 57 -24 46 -21 92 -40 186 -77 12 -5 32 -13 45 -19 35 -15 129 -51
157 -60 14 -5 70 -25 125 -45 219 -80 511 -173 645 -205 19 -4 69 -18 110 -29
111 -31 140 -39 190 -50 25 -5 77 -17 115 -26 224 -53 495 -103 720 -135 44
-6 107 -15 140 -20 275 -43 869 -83 1215 -83 347 -1 948 40 1225 83 33 5 96
14 140 20 115 16 203 30 260 41 28 5 86 16 130 24 128 24 184 35 290 60 210
50 313 76 530 135 17 4 68 20 115 35 47 15 99 30 115 35 64 17 414 138 490
169 11 5 52 21 90 36 39 15 81 32 95 37 14 6 34 14 45 19 66 27 239 101 290
124 138 62 519 248 540 264 5 4 55 32 110 61 55 29 112 61 127 72 14 10 29 18
32 18 3 0 58 32 123 71 65 39 134 80 153 91 92 53 483 320 635 434 752 563
1319 1130 1915 1914 87 116 365 521 379 554 2 6 27 46 56 90 47 75 98 159 155
261 13 22 34 60 48 85 14 25 38 68 53 95 29 52 284 565 299 600 4 11 18 43 30
70 40 90 70 162 89 210 5 11 13 31 18 45 6 14 23 57 38 95 15 39 31 79 35 90
10 23 44 118 66 185 8 25 19 54 23 65 13 33 53 148 58 170 3 11 8 29 13 40 4
11 15 47 25 80 9 33 20 68 26 77 5 10 9 29 9 42 0 14 5 28 10 31 6 3 10 17 10
30 0 13 4 34 9 47 8 21 23 72 51 178 5 19 16 67 25 105 9 39 20 84 25 100 5
17 14 57 20 90 6 33 15 76 20 95 13 51 51 246 61 310 15 97 28 183 44 285 51
324 88 868 88 1275 -1 402 -40 965 -88 1265 -33 204 -37 231 -44 285 -9 59
-46 253 -61 310 -5 19 -14 62 -20 95 -6 33 -15 74 -20 90 -5 17 -16 62 -25
100 -19 84 -32 135 -50 195 -12 42 -17 61 -46 173 -6 23 -15 51 -19 62 -5 11
-16 47 -25 80 -9 33 -21 69 -25 80 -4 11 -16 47 -26 80 -10 33 -22 64 -26 70
-4 5 -8 19 -8 31 0 13 -4 26 -10 29 -5 3 -10 16 -10 29 0 12 -3 26 -7 30 -7 6
-20 42 -49 126 -8 25 -19 54 -23 65 -5 11 -16 40 -26 65 -10 25 -22 56 -28 70
-5 14 -13 34 -17 45 -5 11 -15 38 -25 60 -9 22 -20 49 -25 60 -17 41 -43 101
-62 145 -11 25 -24 54 -28 65 -15 36 -270 548 -299 600 -15 28 -42 77 -61 110
-59 107 -142 248 -195 331 -29 44 -54 84 -56 90 -7 16 -160 246 -232 349 -673
956 -1489 1752 -2463 2401 -128 85 -235 154 -239 154 -3 0 -25 13 -48 28 -46
32 -281 169 -361 212 -28 15 -87 46 -131 70 -91 49 -313 160 -425 213 -116 54
-211 97 -215 97 -3 0 -34 14 -70 30 -36 17 -68 30 -71 30 -3 0 -22 7 -42 16
-62 27 -203 83 -337 133 -89 33 -330 113 -470 155 -49 16 -101 31 -115 36 -14
4 -43 13 -65 19 -22 6 -83 22 -135 37 -106 29 -142 38 -215 54 -27 6 -72 17
-100 25 -27 7 -77 19 -110 25 -33 6 -78 16 -100 20 -102 23 -374 69 -520 90
-44 6 -107 15 -140 20 -168 26 -377 45 -660 59 -115 6 -238 15 -271 21 -72 12
-521 12 -579 0z m880 -419 c200 -14 352 -28 490 -46 307 -40 441 -62 630 -100
72 -15 141 -29 155 -32 24 -4 124 -27 320 -74 47 -12 105 -27 130 -34 25 -7
65 -18 90 -25 25 -7 56 -16 70 -20 14 -4 59 -18 100 -30 93 -27 379 -122 440
-145 25 -9 63 -24 85 -32 22 -8 49 -19 60 -23 38 -14 160 -62 180 -70 11 -4
41 -17 67 -29 26 -12 50 -21 53 -21 5 0 73 -30 180 -80 33 -15 83 -38 110 -50
62 -27 371 -182 445 -223 30 -16 86 -47 123 -68 38 -22 70 -39 72 -39 4 0 201
-118 316 -190 114 -71 372 -243 434 -289 43 -33 232 -174 314 -236 14 -10 55
-43 91 -72 336 -276 407 -340 720 -652 358 -356 593 -629 895 -1038 80 -109
305 -441 305 -450 0 -3 16 -28 35 -54 19 -27 35 -51 35 -54 0 -3 20 -36 45
-75 25 -39 45 -72 45 -75 0 -3 11 -24 26 -46 29 -47 54 -90 99 -174 17 -33 51
-96 75 -140 66 -123 186 -367 235 -480 9 -22 30 -67 45 -100 31 -66 174 -428
215 -545 15 -41 30 -84 34 -95 5 -11 20 -58 35 -105 15 -47 31 -94 36 -105 5
-11 11 -31 13 -45 3 -14 17 -63 32 -110 15 -47 31 -101 35 -120 4 -19 20 -80
35 -135 15 -55 32 -117 36 -137 5 -21 13 -55 18 -75 37 -157 51 -222 71 -333
5 -30 16 -91 25 -135 27 -145 43 -254 64 -435 5 -41 14 -115 20 -165 29 -245
51 -627 51 -900 0 -357 -39 -915 -80 -1156 -6 -30 -10 -69 -10 -86 0 -17 -4
-53 -10 -80 -5 -26 -16 -88 -25 -138 -9 -49 -20 -115 -26 -145 -6 -30 -15 -80
-20 -110 -6 -30 -16 -80 -24 -110 -7 -30 -18 -80 -25 -110 -6 -30 -15 -71 -20
-90 -5 -19 -21 -82 -36 -140 -29 -117 -34 -133 -65 -240 -38 -133 -116 -382
-129 -415 -5 -11 -20 -54 -35 -95 -31 -87 -63 -173 -80 -215 -7 -16 -29 -73
-50 -125 -21 -52 -51 -124 -68 -160 -16 -36 -33 -76 -39 -89 -54 -141 -311
-646 -424 -834 -30 -49 -54 -92 -54 -94 0 -2 -32 -53 -70 -114 -39 -60 -70
-111 -70 -113 0 -10 -243 -364 -327 -477 -330 -440 -496 -633 -868 -1004 -271
-272 -322 -320 -581 -540 -163 -139 -660 -515 -681 -515 -4 0 -16 -8 -27 -18
-25 -22 -401 -262 -499 -318 -38 -21 -76 -43 -85 -49 -10 -5 -53 -30 -97 -54
-44 -24 -95 -53 -114 -63 -90 -51 -458 -231 -576 -283 -16 -7 -56 -24 -88 -39
-32 -14 -60 -26 -62 -26 -3 0 -27 -9 -53 -21 -54 -24 -62 -27 -157 -64 -38
-15 -79 -31 -90 -35 -11 -5 -54 -20 -95 -35 -41 -15 -84 -30 -95 -35 -11 -5
-38 -14 -60 -21 -22 -6 -51 -16 -65 -21 -45 -18 -264 -89 -337 -109 -18 -5
-48 -13 -65 -18 -92 -26 -230 -63 -288 -77 -136 -32 -266 -63 -290 -67 -14 -3
-72 -14 -130 -26 -183 -38 -316 -60 -470 -81 -36 -4 -121 -16 -190 -25 -610
-81 -1540 -81 -2150 0 -69 9 -154 21 -190 25 -36 5 -94 14 -130 20 -36 6 -92
15 -125 20 -33 5 -94 16 -135 25 -41 8 -100 20 -130 25 -30 5 -73 14 -95 19
-22 5 -71 16 -110 25 -83 19 -276 67 -360 91 -33 9 -75 21 -92 26 -18 5 -48
13 -65 18 -74 20 -315 98 -343 110 -11 4 -38 14 -60 20 -22 7 -49 16 -60 20
-11 5 -54 21 -95 36 -61 21 -199 75 -325 125 -26 10 -77 32 -140 60 -27 12
-63 28 -80 35 -191 84 -582 280 -723 364 -29 17 -55 31 -57 31 -3 0 -29 16
-59 35 -30 19 -57 35 -60 35 -5 0 -97 56 -206 125 -523 331 -1027 726 -1430
1120 -391 383 -631 654 -940 1060 -167 220 -500 716 -500 745 0 6 -4 10 -10
10 -5 0 -10 4 -10 9 0 5 -19 42 -43 83 -44 74 -70 120 -147 263 -52 95 -208
409 -240 480 -12 28 -36 79 -52 115 -28 62 -36 82 -57 133 -5 12 -17 40 -26
62 -10 22 -20 49 -25 60 -4 11 -12 31 -18 45 -6 14 -17 41 -26 60 -8 19 -27
71 -42 115 -14 44 -31 84 -35 90 -5 5 -9 17 -9 27 0 10 -4 26 -10 36 -5 9 -21
53 -35 97 -15 44 -30 89 -35 100 -4 11 -13 40 -20 65 -7 25 -23 77 -35 115
-12 39 -27 88 -33 110 -20 77 -44 160 -52 185 -4 14 -13 50 -19 80 -7 30 -16
71 -21 90 -22 85 -49 206 -70 315 -6 33 -18 89 -25 125 -7 36 -18 99 -25 140
-6 41 -15 94 -20 118 -6 23 -10 59 -10 80 0 20 -5 56 -10 80 -55 236 -94 1113
-71 1567 16 310 41 590 66 732 8 45 15 98 15 117 0 20 4 55 10 78 5 24 14 77
20 118 7 41 18 104 25 140 7 36 19 92 25 125 6 33 16 78 20 100 32 147 43 193
50 215 4 14 13 52 20 85 7 33 16 71 20 85 8 24 30 104 52 185 6 22 21 72 33
110 12 39 28 90 35 115 7 25 16 54 21 65 4 11 26 75 48 141 22 67 46 134 52
150 18 46 26 67 39 104 7 19 19 49 26 67 8 17 14 34 14 37 0 3 9 28 21 54 12
26 25 56 29 67 5 11 15 36 23 55 8 19 24 56 36 82 11 26 21 50 21 53 0 8 77
170 176 370 85 172 132 262 191 365 11 19 32 57 47 84 15 27 43 73 62 103 18
29 34 56 34 59 0 3 48 80 107 172 441 690 959 1301 1568 1847 196 176 318 277
540 447 157 121 511 367 641 445 10 6 55 34 99 61 44 27 97 59 117 70 20 12
55 32 77 46 22 15 43 26 45 26 3 0 29 14 58 31 106 63 435 231 593 304 109 50
160 73 195 88 19 8 58 25 85 37 67 30 72 32 210 85 66 26 147 58 180 71 82 32
357 122 595 194 14 4 45 13 70 20 25 7 65 18 90 25 77 21 123 33 175 45 28 6
66 15 85 20 101 27 190 47 270 60 25 4 90 16 145 27 96 20 182 35 310 53 33 5
89 14 125 19 161 24 500 57 730 70 185 11 867 5 1065 -8z"/>
<path d="M9815 16969 c-297 -19 -752 -71 -925 -105 -14 -3 -56 -11 -95 -19
-228 -44 -268 -52 -405 -85 -135 -33 -191 -48 -230 -61 -14 -4 -86 -24 -160
-44 -74 -20 -142 -40 -150 -44 -8 -4 -55 -20 -105 -35 -49 -16 -103 -34 -120
-41 -16 -7 -52 -21 -80 -30 -69 -23 -412 -159 -488 -194 -34 -16 -84 -39 -112
-51 -259 -117 -635 -318 -838 -447 -37 -24 -69 -43 -71 -43 -3 0 -94 -60 -203
-133 -186 -124 -478 -340 -589 -433 -27 -23 -83 -70 -124 -104 -344 -285 -872
-834 -1125 -1171 -11 -15 -59 -78 -106 -140 -109 -146 -219 -304 -219 -317 0
-17 465 -24 828 -13 424 13 751 29 1262 62 85 5 229 14 319 19 90 5 173 12
184 16 26 8 132 -14 178 -37 79 -39 124 -94 160 -192 57 -157 -23 -340 -179
-409 -48 -22 -165 -38 -437 -62 -99 -9 -232 -20 -296 -26 -63 -5 -150 -10
-192 -10 -78 0 -85 -4 -68 -38 4 -9 14 -33 20 -52 48 -144 175 -517 247 -725
47 -137 88 -262 91 -278 3 -15 9 -30 14 -33 5 -3 9 -14 9 -25 0 -10 4 -27 10
-37 5 -9 32 -87 60 -172 28 -85 55 -164 60 -175 4 -11 15 -42 24 -70 8 -27 54
-162 101 -300 48 -137 89 -259 92 -270 2 -11 8 -29 12 -40 5 -11 13 -36 20
-55 48 -145 114 -338 121 -355 4 -11 15 -42 23 -70 9 -27 55 -162 102 -300 47
-137 93 -272 101 -300 9 -27 20 -59 24 -70 7 -17 73 -210 121 -355 7 -19 15
-44 20 -55 4 -11 10 -29 12 -40 3 -11 29 -85 57 -165 28 -80 54 -154 56 -165
3 -11 9 -29 13 -40 10 -25 47 -135 68 -200 8 -27 19 -59 23 -70 7 -17 73 -210
121 -355 7 -19 15 -44 20 -55 4 -11 30 -87 58 -170 65 -195 73 -216 82 -240 4
-11 10 -29 12 -40 3 -11 49 -146 102 -300 52 -154 129 -381 170 -505 42 -124
80 -233 85 -242 6 -10 10 -27 10 -37 0 -11 4 -22 9 -25 5 -3 11 -18 14 -33 4
-25 86 -269 106 -318 11 -26 68 -196 88 -260 8 -27 19 -59 23 -70 9 -20 118
-342 138 -405 2 -8 31 -91 64 -185 33 -93 62 -179 65 -190 2 -11 8 -29 12 -40
5 -11 13 -36 20 -55 6 -19 34 -102 62 -185 27 -82 54 -159 58 -170 5 -11 15
-40 22 -65 7 -25 16 -49 19 -53 4 -5 39 88 78 205 69 209 108 323 122 363 33
90 53 154 57 178 3 15 9 30 14 33 5 3 9 14 9 25 0 10 4 27 10 37 5 9 48 134
95 277 47 143 90 268 95 277 6 10 10 27 10 37 0 11 4 22 9 25 5 3 11 18 14 33
5 30 44 147 58 175 5 10 9 25 9 33 0 8 4 23 10 33 5 9 48 134 95 277 47 143
90 269 94 280 5 11 16 43 24 70 14 44 46 143 67 200 4 11 12 36 19 55 6 19 50
150 97 290 47 140 89 264 93 275 5 11 16 43 24 70 14 46 49 151 67 200 18 49
53 154 67 200 8 28 19 59 24 70 4 11 47 137 94 280 47 143 90 268 95 277 6 10
10 27 10 37 0 11 4 22 9 25 5 3 11 18 14 33 5 30 44 147 58 175 5 10 9 25 9
33 0 8 4 23 10 33 5 9 45 125 89 256 l79 239 -30 86 c-16 47 -36 100 -43 116
-7 17 -23 59 -35 95 -12 36 -25 74 -29 85 -5 11 -16 40 -26 65 -9 25 -21 53
-26 62 -5 10 -9 25 -9 33 0 8 -4 23 -9 33 -5 9 -17 37 -26 62 -10 25 -21 54
-26 65 -4 11 -15 40 -23 65 -13 41 -21 62 -47 125 -4 11 -15 40 -23 65 -8 25
-20 59 -26 75 -7 17 -16 39 -21 50 -4 11 -17 49 -29 85 -12 36 -28 79 -35 95
-7 17 -26 66 -41 110 -15 44 -30 85 -34 90 -3 6 -12 30 -20 55 -7 25 -17 49
-22 55 -4 5 -8 19 -8 31 0 13 -4 25 -9 28 -5 3 -16 29 -25 58 -9 29 -21 62
-26 73 -4 11 -16 43 -26 70 -9 28 -21 54 -26 60 -4 5 -8 17 -8 27 0 10 -4 26
-9 36 -6 9 -22 51 -36 92 -15 41 -30 84 -35 95 -5 11 -20 54 -35 95 -15 41
-30 84 -35 95 -5 11 -20 54 -35 95 -15 41 -30 84 -35 95 -9 22 -76 203 -92
250 -6 17 -16 44 -23 60 -7 17 -23 59 -35 95 -12 36 -28 79 -35 95 -7 17 -23
59 -35 95 -12 36 -25 74 -29 85 -5 11 -16 40 -26 65 -28 74 -29 75 -76 77
-162 8 -598 49 -678 63 -30 6 -75 10 -100 10 -106 0 -219 74 -273 178 -20 39
-23 60 -22 146 0 90 3 107 28 155 41 80 111 144 182 166 70 22 98 22 324 7
1068 -73 1751 -98 2226 -83 565 19 772 29 1269 61 83 5 226 14 320 20 93 5
183 13 200 16 35 6 136 -16 183 -40 51 -26 106 -87 138 -151 24 -50 28 -71 28
-141 0 -119 -35 -193 -125 -264 -75 -59 -129 -70 -504 -104 -158 -15 -428 -35
-515 -39 -48 -2 -52 -11 -31 -62 5 -11 16 -42 24 -70 23 -72 38 -118 48 -137
5 -10 9 -25 9 -33 0 -8 4 -23 10 -33 5 -9 32 -87 60 -172 28 -85 55 -163 60
-172 6 -10 10 -27 10 -37 0 -11 4 -22 9 -25 5 -3 11 -18 14 -33 3 -16 44 -140
91 -278 48 -137 94 -272 102 -300 9 -27 20 -59 24 -70 7 -17 73 -210 121 -355
7 -19 15 -44 19 -55 4 -11 12 -36 19 -55 6 -19 34 -102 62 -185 27 -82 53
-159 58 -170 5 -11 18 -49 30 -85 82 -246 123 -368 130 -385 13 -30 52 -147
58 -170 3 -11 8 -29 12 -40 5 -11 13 -36 20 -55 48 -145 114 -338 121 -355 4
-11 15 -42 24 -70 8 -27 54 -162 101 -300 47 -137 93 -272 102 -300 8 -27 19
-59 23 -70 5 -11 32 -90 60 -175 28 -85 55 -164 60 -175 4 -11 15 -42 23 -70
21 -66 125 -374 136 -400 12 -29 50 -141 68 -200 8 -27 19 -59 23 -70 5 -11
20 -56 35 -100 14 -44 30 -89 35 -100 4 -11 15 -42 23 -70 14 -45 24 -74 47
-140 4 -11 12 -36 19 -55 6 -19 34 -102 62 -185 27 -82 54 -159 59 -170 4 -11
11 -29 13 -40 3 -11 49 -146 102 -300 53 -154 99 -289 102 -300 2 -11 8 -29
12 -40 5 -11 13 -36 20 -55 51 -155 114 -339 121 -355 4 -11 11 -29 13 -40 3
-11 49 -146 102 -300 53 -154 103 -302 112 -330 8 -27 19 -59 23 -70 5 -11 20
-56 35 -100 14 -44 30 -89 34 -100 13 -32 31 -86 48 -140 8 -27 19 -59 23 -70
5 -11 18 -50 30 -87 21 -67 40 -96 40 -62 0 10 11 49 23 88 13 39 29 89 35
111 14 46 60 198 72 235 4 14 13 45 20 70 7 25 23 77 35 115 12 39 28 90 35
115 7 25 23 77 35 115 12 39 28 90 35 115 7 25 23 77 35 115 12 39 28 90 35
115 7 25 16 56 20 70 4 14 16 52 25 85 10 33 21 69 25 80 4 11 12 36 17 55 23
78 46 156 53 175 4 11 13 38 19 60 21 78 43 150 51 170 4 11 13 38 19 60 28
102 43 151 52 167 5 10 9 27 9 38 0 11 4 28 9 38 5 9 15 37 21 62 7 25 18 63
25 85 7 22 18 60 25 85 7 25 16 54 20 65 8 22 46 143 86 275 14 47 29 94 34
105 4 11 13 40 20 65 7 25 27 90 45 145 18 55 44 141 60 190 15 50 30 97 32
105 3 8 9 29 13 45 5 17 20 68 35 115 15 47 31 99 35 115 5 17 16 57 25 90 25
89 35 126 45 165 5 19 20 80 35 135 26 102 40 159 54 230 5 22 18 83 29 135
22 103 36 191 51 315 47 379 18 874 -74 1235 -3 14 -11 45 -17 70 -11 50 -56
204 -68 235 -4 11 -13 38 -20 60 -7 22 -18 54 -25 70 -7 17 -18 46 -25 65 -7
19 -23 59 -36 88 -13 29 -24 55 -24 57 0 19 -178 375 -248 497 -12 21 -38 68
-59 105 -20 37 -83 142 -140 232 -57 90 -103 164 -103 166 0 2 -31 53 -70 114
-38 62 -70 114 -70 116 0 3 -12 24 -27 48 -58 92 -223 419 -223 442 0 3 -11
28 -25 57 -14 28 -25 58 -25 65 0 7 -4 21 -9 31 -24 45 -68 205 -91 332 -13
69 -31 305 -25 324 2 6 6 52 9 101 3 50 13 122 22 160 9 39 18 84 21 100 3 17
9 35 13 40 4 6 10 23 14 39 16 65 98 228 173 345 66 102 248 287 353 357 156
106 271 155 470 204 63 15 204 28 273 25 55 -3 71 5 43 22 -7 4 -42 34 -77 65
-220 194 -493 404 -773 592 -226 152 -348 226 -681 414 -113 63 -569 282 -589
282 -7 0 -16 4 -21 8 -29 26 -464 190 -705 267 -283 91 -472 141 -802 214
-115 26 -385 72 -528 91 -47 7 -114 16 -150 22 -36 5 -87 12 -115 14 -27 1
-102 8 -165 13 -346 31 -834 39 -1145 20z"/>
<path d="M17240 12812 c0 -15 7 -84 17 -152 24 -182 24 -925 0 -1125 -10 -77
-22 -178 -28 -225 -22 -189 -76 -495 -110 -630 -4 -19 -20 -84 -34 -145 -32
-138 -38 -160 -70 -265 -13 -47 -29 -98 -34 -115 -19 -66 -64 -211 -71 -230
-19 -51 -53 -152 -57 -170 -3 -11 -8 -29 -13 -40 -5 -11 -25 -65 -45 -120 -20
-55 -40 -109 -45 -120 -4 -11 -15 -40 -25 -65 -25 -64 -34 -87 -44 -112 -28
-68 -61 -165 -61 -179 0 -8 -4 -19 -8 -24 -5 -6 -21 -48 -36 -95 -15 -47 -32
-93 -37 -102 -5 -10 -9 -26 -9 -36 0 -10 -4 -22 -9 -27 -4 -6 -28 -66 -51
-135 -105 -308 -138 -402 -144 -407 -3 -4 -6 -15 -6 -25 0 -10 -4 -26 -9 -36
-9 -16 -43 -108 -75 -202 -8 -25 -38 -110 -66 -190 -28 -80 -64 -183 -80 -230
-16 -47 -52 -150 -80 -230 -28 -80 -60 -170 -70 -200 -10 -30 -42 -120 -70
-200 -28 -80 -64 -183 -80 -230 -16 -47 -48 -137 -70 -200 -22 -63 -54 -153
-70 -200 -16 -47 -52 -150 -80 -230 -28 -80 -64 -183 -80 -230 -16 -47 -48
-137 -70 -200 -22 -63 -54 -153 -70 -200 -16 -47 -52 -150 -80 -230 -28 -80
-60 -170 -70 -200 -10 -30 -42 -120 -70 -200 -28 -80 -57 -165 -66 -190 -8
-25 -19 -54 -24 -65 -4 -11 -11 -29 -14 -40 -2 -11 -28 -85 -56 -165 -29 -80
-54 -155 -57 -168 -3 -12 -9 -25 -14 -28 -5 -3 -9 -15 -9 -28 0 -12 -4 -26 -8
-32 -4 -5 -16 -36 -27 -69 -10 -33 -22 -64 -27 -69 -4 -6 -8 -19 -8 -31 0 -12
-4 -25 -8 -31 -4 -5 -16 -36 -27 -69 -10 -33 -22 -64 -27 -69 -4 -6 -8 -19 -8
-31 0 -12 -4 -25 -8 -31 -5 -5 -22 -49 -37 -99 -16 -49 -32 -94 -37 -99 -4 -6
-8 -18 -8 -27 0 -9 -7 -30 -15 -45 -8 -16 -15 -37 -15 -46 0 -9 -4 -20 -10
-23 -5 -3 -10 -17 -10 -30 0 -13 -4 -27 -10 -30 -5 -3 -10 -16 -10 -29 0 -12
-4 -26 -8 -32 -4 -5 -16 -36 -27 -69 -10 -33 -22 -64 -27 -69 -4 -6 -8 -19 -8
-31 0 -12 -4 -25 -8 -31 -5 -5 -17 -36 -27 -69 -11 -33 -23 -64 -27 -69 -4 -6
-8 -20 -8 -32 0 -13 -4 -26 -10 -29 -5 -3 -10 -14 -10 -23 0 -9 -7 -30 -15
-46 -8 -15 -15 -37 -15 -47 0 -10 -4 -21 -10 -24 -5 -3 -10 -16 -10 -29 0 -12
-4 -26 -8 -32 -5 -5 -17 -36 -27 -69 -11 -33 -23 -64 -27 -69 -4 -6 -8 -19 -8
-31 0 -12 -4 -25 -8 -31 -12 -13 -35 -85 -29 -90 12 -12 496 303 705 458 301
224 512 401 779 654 157 149 381 383 493 513 30 35 60 69 66 75 27 27 307 384
379 482 221 303 496 751 651 1064 35 72 135 281 154 325 12 28 31 70 42 95 21
47 33 77 51 120 5 14 15 39 22 55 7 17 18 42 24 58 6 15 15 37 20 50 5 12 21
56 36 97 14 41 30 83 36 92 5 10 9 26 9 36 0 10 4 22 8 27 4 6 16 37 26 70 10
33 22 68 27 77 5 10 9 26 9 36 0 10 3 22 7 26 4 4 13 28 21 54 7 26 17 61 22
77 5 17 13 46 19 65 5 19 16 60 25 90 16 56 55 213 82 330 9 36 19 81 24 100
5 19 12 53 15 75 10 59 21 120 39 215 36 186 82 557 97 790 41 608 10 1248
-87 1825 -30 175 -36 210 -44 245 -5 19 -14 62 -20 95 -12 64 -35 161 -51 211
-5 17 -9 40 -9 52 0 11 -4 31 -9 44 -8 22 -29 93 -52 183 -10 39 -51 172 -105
345 -15 47 -31 89 -36 95 -4 5 -8 17 -8 27 0 10 -4 26 -9 36 -6 9 -22 51 -36
92 -15 41 -30 84 -35 95 -4 11 -15 39 -24 62 -17 46 -52 128 -67 155 -5 10 -9
22 -9 28 0 5 -21 53 -46 107 -25 54 -62 132 -81 173 -78 165 -182 370 -188
370 -3 0 -5 -13 -5 -28z"/>
<path d="M3011 12287 c-6 -16 -21 -52 -34 -80 -13 -29 -41 -95 -62 -147 -21
-52 -43 -108 -50 -125 -7 -16 -18 -46 -25 -65 -6 -19 -16 -44 -21 -55 -4 -11
-20 -56 -35 -100 -14 -44 -30 -89 -34 -100 -11 -30 -71 -215 -80 -250 -5 -16
-16 -57 -25 -90 -26 -92 -36 -127 -45 -165 -4 -19 -16 -62 -25 -95 -19 -71
-30 -119 -65 -290 -4 -22 -16 -76 -25 -120 -16 -76 -22 -115 -44 -265 -6 -36
-17 -114 -26 -175 -42 -273 -60 -587 -60 -1015 0 -506 18 -759 86 -1205 5 -33
13 -89 19 -125 10 -68 23 -138 39 -205 5 -22 15 -67 21 -100 25 -126 61 -276
105 -430 14 -49 30 -106 35 -125 19 -67 61 -205 70 -225 4 -11 15 -42 23 -70
19 -61 75 -222 87 -250 5 -11 32 -78 60 -150 63 -158 61 -155 162 -375 46
-102 235 -479 248 -495 5 -5 23 -37 40 -70 18 -33 38 -67 44 -75 7 -8 23 -36
36 -63 13 -26 29 -52 37 -58 7 -6 13 -15 13 -20 0 -14 155 -253 279 -429 430
-613 968 -1185 1555 -1650 302 -239 771 -555 1046 -703 19 -11 64 -35 100 -55
95 -52 313 -162 321 -162 5 0 -1 24 -13 52 -11 29 -27 71 -35 93 -9 22 -19 49
-24 60 -4 11 -17 49 -29 85 -12 36 -28 79 -35 95 -7 17 -25 64 -40 105 -15 41
-42 116 -60 165 -18 50 -43 117 -55 150 -12 33 -25 69 -30 80 -5 11 -20 54
-35 95 -15 41 -30 84 -35 95 -5 11 -20 54 -35 95 -15 41 -30 84 -35 95 -5 11
-20 54 -35 95 -15 41 -30 84 -35 95 -5 11 -20 54 -35 95 -15 41 -30 84 -35 95
-4 11 -25 65 -45 120 -20 55 -40 109 -45 120 -4 11 -19 52 -33 90 -14 39 -39
107 -56 152 -17 46 -38 104 -47 130 -8 27 -19 57 -23 68 -5 11 -16 40 -26 65
-9 25 -21 53 -26 62 -5 10 -9 25 -9 33 0 8 -4 23 -9 33 -5 9 -17 37 -26 62
-10 25 -21 54 -26 65 -4 11 -15 40 -23 65 -8 25 -20 59 -26 75 -7 17 -16 39
-21 50 -4 11 -17 49 -29 85 -12 36 -28 79 -35 95 -7 17 -23 59 -35 95 -12 36
-28 79 -35 95 -7 17 -18 46 -25 65 -13 38 -21 60 -40 105 -6 17 -19 50 -27 75
-15 46 -78 219 -93 255 -5 11 -20 54 -35 95 -15 41 -30 84 -35 95 -5 11 -20
54 -35 95 -15 41 -30 84 -35 95 -5 11 -20 54 -35 95 -15 41 -30 84 -35 95 -5
11 -20 54 -35 95 -15 41 -30 84 -35 95 -9 22 -76 203 -92 250 -6 17 -16 44
-23 60 -7 17 -23 59 -35 95 -12 36 -25 74 -29 85 -5 11 -14 34 -21 50 -6 17
-18 50 -26 75 -8 25 -19 54 -23 65 -13 30 -36 92 -61 160 -36 98 -52 139 -61
157 -5 10 -9 26 -9 36 0 10 -4 22 -8 27 -4 6 -16 35 -26 65 -11 30 -23 59 -27
65 -5 5 -9 18 -9 30 0 12 -4 25 -8 30 -4 6 -14 28 -21 50 -7 22 -19 54 -26 70
-12 28 -30 75 -100 275 -14 41 -30 83 -36 93 -5 9 -16 39 -25 65 -8 26 -19 56
-24 67 -5 11 -16 43 -26 70 -9 28 -21 54 -26 60 -4 5 -8 17 -8 27 0 10 -4 26
-9 36 -6 9 -22 51 -36 92 -15 41 -30 84 -35 95 -5 11 -20 54 -35 95 -15 41
-30 84 -35 95 -5 11 -20 54 -35 95 -15 41 -30 84 -35 95 -11 26 -76 204 -145
395 -14 41 -30 84 -34 95 -5 11 -14 34 -21 50 -6 17 -18 50 -26 75 -8 25 -19
54 -23 65 -5 11 -16 40 -26 65 -9 25 -21 53 -26 62 -5 10 -9 25 -9 33 0 8 -4
23 -9 33 -5 9 -17 37 -26 62 -9 25 -21 53 -26 62 -5 10 -9 26 -9 36 0 10 -4
22 -8 28 -4 5 -16 34 -26 64 -11 30 -23 59 -27 64 -5 6 -9 18 -9 28 0 10 -4
26 -9 36 -5 9 -26 61 -45 115 -20 53 -52 141 -72 195 -46 125 -93 252 -139
377 -20 55 -41 109 -45 120 -5 11 -20 54 -35 95 -15 41 -30 84 -35 95 -5 11
-20 54 -35 95 -14 41 -30 83 -36 92 -5 10 -9 26 -9 36 0 10 -4 22 -8 28 -5 5
-17 32 -26 59 -10 28 -21 59 -26 70 -5 11 -16 40 -24 65 -13 41 -21 62 -47
125 -4 11 -15 40 -23 65 -8 25 -20 59 -26 75 -17 41 -26 63 -43 110 l-15 40
-11 -28z"/>
<path d="M10392 8399 c-5 -13 -15 -42 -22 -64 -7 -22 -16 -49 -21 -60 -12 -31
-56 -155 -73 -205 -8 -25 -43 -124 -76 -220 -34 -96 -64 -184 -67 -195 -2 -11
-8 -29 -13 -40 -10 -24 -53 -144 -74 -205 -8 -25 -43 -124 -77 -220 -34 -96
-64 -187 -66 -203 -3 -15 -9 -30 -14 -33 -5 -3 -9 -13 -9 -22 0 -9 -7 -30 -15
-46 -8 -15 -15 -37 -15 -47 0 -10 -4 -21 -10 -24 -5 -3 -10 -16 -10 -29 0 -12
-4 -26 -8 -32 -5 -5 -17 -36 -27 -69 -11 -33 -23 -64 -27 -69 -4 -6 -8 -20 -8
-32 0 -13 -4 -26 -10 -29 -5 -3 -10 -16 -10 -29 0 -12 -4 -26 -9 -32 -5 -5
-16 -36 -26 -69 -10 -33 -22 -64 -27 -69 -4 -6 -8 -18 -8 -28 0 -10 -4 -26 -9
-36 -5 -9 -17 -39 -26 -67 -9 -27 -20 -59 -25 -70 -5 -11 -11 -29 -13 -40 -5
-19 -32 -95 -148 -425 -28 -80 -53 -154 -56 -165 -2 -11 -8 -29 -13 -40 -15
-36 -104 -287 -150 -425 -16 -47 -47 -137 -70 -200 -22 -63 -48 -137 -57 -165
-8 -27 -19 -59 -23 -70 -16 -40 -59 -162 -95 -270 -20 -60 -40 -118 -46 -127
-5 -10 -9 -26 -9 -36 0 -10 -4 -22 -8 -27 -5 -6 -17 -37 -27 -70 -11 -33 -23
-64 -27 -70 -4 -5 -8 -17 -8 -27 0 -10 -4 -26 -9 -36 -5 -9 -22 -53 -36 -97
-14 -44 -30 -89 -35 -100 -4 -11 -11 -29 -14 -40 -10 -40 -53 -155 -59 -162
-4 -3 -7 -15 -7 -25 0 -10 -4 -26 -10 -36 -5 -9 -23 -57 -39 -107 -17 -49 -53
-155 -81 -235 -28 -80 -64 -183 -80 -230 -16 -47 -47 -137 -70 -200 -22 -63
-54 -153 -70 -200 -16 -47 -56 -164 -90 -260 -34 -96 -70 -200 -80 -230 -10
-30 -42 -120 -70 -200 -75 -210 -73 -203 -53 -218 9 -6 24 -12 33 -12 9 0 36
-6 61 -14 69 -21 173 -48 274 -71 39 -8 86 -19 105 -24 57 -15 251 -52 410
-79 754 -128 1519 -147 2265 -56 218 26 481 67 600 94 22 4 67 14 100 20 136
27 331 75 510 125 50 14 106 30 125 35 32 9 298 94 328 105 9 3 3 23 -19 72
-36 77 -38 81 -74 183 -14 41 -30 83 -36 92 -5 10 -9 25 -9 33 0 8 -4 23 -9
33 -5 9 -17 37 -26 62 -10 25 -21 54 -26 65 -4 11 -15 40 -23 65 -8 25 -20 59
-26 75 -7 17 -16 39 -21 50 -4 11 -17 49 -29 85 -12 36 -28 79 -35 95 -7 17
-25 64 -40 105 -15 41 -42 116 -60 165 -18 50 -43 117 -55 150 -21 59 -25 68
-50 130 -6 17 -18 50 -26 75 -8 25 -19 54 -24 65 -4 11 -20 54 -35 95 -15 41
-31 84 -35 95 -5 11 -17 44 -26 73 -9 29 -20 55 -25 58 -5 3 -9 15 -9 28 0 12
-4 26 -8 31 -4 6 -14 28 -21 50 -7 22 -19 54 -26 70 -8 17 -21 51 -29 78 -9
26 -30 84 -47 130 -36 97 -85 229 -135 365 -19 53 -40 105 -45 114 -5 10 -9
26 -9 36 0 10 -4 22 -8 27 -5 6 -17 33 -26 60 -10 28 -21 59 -26 70 -5 11 -16
40 -24 65 -13 41 -21 62 -47 125 -4 11 -15 40 -23 65 -8 25 -20 59 -26 75 -7
17 -16 39 -21 50 -4 11 -17 49 -29 85 -12 36 -28 79 -35 95 -7 17 -25 64 -40
105 -15 41 -42 116 -60 165 -18 50 -43 117 -55 150 -21 59 -25 68 -50 130 -6
17 -18 50 -26 75 -8 25 -19 54 -24 65 -4 11 -20 54 -35 95 -15 41 -30 84 -35
95 -5 11 -20 54 -35 95 -15 41 -30 84 -35 95 -5 11 -20 54 -35 95 -15 41 -30
84 -35 95 -4 11 -25 65 -45 120 -20 55 -40 109 -45 120 -4 11 -19 52 -33 90
-41 113 -98 268 -107 290 -5 11 -20 54 -35 95 -15 41 -31 84 -35 95 -5 11 -16
40 -24 65 -13 41 -21 62 -47 125 -4 11 -15 40 -23 65 -13 41 -21 62 -47 125
-4 11 -15 40 -23 65 -8 25 -20 59 -26 75 -25 62 -42 105 -65 170 -39 112 -57
161 -65 180 -23 58 -40 104 -51 140 -18 54 -27 63 -37 34z"/>
</g>
</svg>
